<svg width="40" height="40" viewBox="0 0 40 40" fill="none" xmlns="http://www.w3.org/2000/svg">
<circle cx="20" cy="20" r="20" fill="#3532BF"/>
<path d="M32.7741 7.74714L24.5274 2.86724C21.9237 1.32938 18.6967 1.30361 16.0673 2.79851L7.75233 7.54954C5.12295 9.05303 3.4924 11.8452 3.46679 14.8866L3.38995 24.5089C3.36434 27.5503 4.96075 30.3768 7.56452 31.9147L15.8112 36.7946C18.415 38.3324 21.6419 38.3582 24.2713 36.8633L32.5863 32.1123C35.2157 30.6088 36.8462 27.8166 36.8718 24.7752L36.9487 15.1529C36.9743 12.1116 35.3779 9.28499 32.7741 7.74714Z" fill="#4A3CE8"/>
<path fill-rule="evenodd" clip-rule="evenodd" d="M21.2273 24.2803L21.1742 29.4907L23.6551 28.5591V23.0647L26.1931 27.618L28.6551 21.1921V26.6675L30.6703 25.9355V18.4734L26.7445 19.9563L25.927 22.4944L24.9004 20.6502L21.2666 22.0224L19.7958 21.4396L21.2407 19.0726L30.6608 15.5174V14.063L20.2236 10.5078L9.4917 14.063L13.6932 26.896L15.9365 27.7705L18.6742 23.2647L20.87 24.1393L21.2273 24.2803ZM15.2828 24.9824L12.0962 15.4319L20.2141 12.7512L26.5163 14.852L19.2635 17.5327L17.638 20.5746L14.9099 19.4909L15.7844 22.105L16.6399 22.4472L15.2828 24.9824Z" fill="#F5F5F5"/>
</svg>
