<svg width="92" height="51" viewBox="0 0 92 51" fill="none" xmlns="http://www.w3.org/2000/svg">
<circle cx="66.5528" cy="25.4995" r="25.4468" fill="#3532BF"/>
<path d="M82.806 9.90897L72.3134 3.70007C69.0005 1.7434 64.8947 1.7106 61.5493 3.61262L50.9698 9.65755C47.6243 11.5705 45.5497 15.1231 45.5171 18.9928L45.4193 31.2357C45.3867 35.1053 47.4179 38.7016 50.7308 40.6583L61.2234 46.8672C64.5363 48.8239 68.6421 48.8567 71.9875 46.9547L82.567 40.9097C85.9125 38.9968 87.9871 35.4441 88.0197 31.5745L88.1175 19.3316C88.15 15.462 86.1189 11.8656 82.806 9.90897Z" fill="#4A3CE8"/>
<path fill-rule="evenodd" clip-rule="evenodd" d="M68.1142 30.9471L68.0467 37.5765L71.2033 36.3912V29.4005L74.4325 35.1939L77.565 27.0178V33.9844L80.129 33.0531V23.5587L75.134 25.4455L74.0939 28.6748L72.7877 26.3284L68.1643 28.0743L66.293 27.3328L68.1313 24.3212L80.1169 19.7978V17.9473L66.8372 13.4238L53.1826 17.9473L58.5284 34.2752L61.3826 35.3879L64.8658 29.655L67.6596 30.7677L68.1142 30.9471ZM60.5509 31.8405L56.4965 19.6889L66.8251 16.2782L74.8437 18.9511L65.6157 22.3618L63.5475 26.2322L60.0764 24.8534L61.1891 28.1794L62.2776 28.6148L60.5509 31.8405Z" fill="#F5F5F5"/>
<circle cx="25.4468" cy="25.4995" r="25.4468" fill="#B7B8CF"/>
<path d="M41.3015 10.2878L30.7997 4.12359C27.484 2.17757 23.3746 2.14496 20.0262 4.03662L9.43749 10.0378C6.08911 11.9403 4.00181 15.4845 3.98006 19.333L3.88222 31.5093C3.84961 35.3578 5.88255 38.9346 9.19832 40.8806L19.7001 47.0557C23.0158 49.0017 27.1252 49.0344 30.4736 47.1427L41.0623 41.1307C44.4107 39.2281 46.4871 35.6949 46.5197 31.8463L46.6176 19.67C46.6502 15.8215 44.6172 12.2447 41.3015 10.2987V10.2878Z" fill="#CACBE9"/>
<path d="M26.6328 37.337L38.3861 32.9368V30.1602L26.6328 34.5604V37.337Z" fill="#F5F5F5"/>
<path d="M26.7269 28.0897L24.8563 27.3485L26.6446 24.4189L38.3037 20.0187V18.2186L25.3857 13.8184L12.103 18.2186L17.3032 34.1018L20.0797 35.1842L23.468 29.6074L26.1858 30.6898L26.6328 30.8663L38.3861 26.4661V23.6895L26.7269 28.0897ZM19.2797 31.7722L15.3266 19.9246L25.374 16.6067L33.1742 19.2069L24.1975 22.5247L22.1856 26.2896L18.8091 24.9484L19.8915 28.1838L20.9503 28.6074L19.2562 31.7722H19.2797Z" fill="#F5F5F5"/>
</svg>
