<svg width="24" height="24" viewBox="0 0 24 24" fill="none" xmlns="http://www.w3.org/2000/svg">
<path fill-rule="evenodd" clip-rule="evenodd" d="M12 18.5C14.3956 18.5 16.5 16.3989 16.5 13.6C16.5 13.0372 16.2824 12.2294 15.8229 11.2413C15.3763 10.2808 14.7588 9.27144 14.0991 8.34396C13.4399 7.41715 12.7639 6.60782 12.2203 6.04513C12.142 5.96409 12.0685 5.89026 12 5.82353C11.9315 5.89026 11.858 5.96409 11.7797 6.04513C11.2361 6.60782 10.5601 7.41715 9.90089 8.34396C9.24117 9.27144 8.62372 10.2808 8.17711 11.2413C7.71763 12.2294 7.5 13.0372 7.5 13.6C7.5 16.3989 9.60444 18.5 12 18.5ZM12 20C15.3137 20 18 17.1346 18 13.6C18 10.0654 12.8571 4 12 4C11.1429 4 6 10.0654 6 13.6C6 17.1346 8.68629 20 12 20Z" fill="#B7B8CD"/>
</svg>
