<svg width="48" height="48" viewBox="0 0 48 48" fill="none" xmlns="http://www.w3.org/2000/svg">
<g filter="url(#filter0_d_3145_18054)">
<circle cx="24" cy="20" r="20" fill="#B7B8CF"/>
<path d="M36.4608 8.04354L28.207 3.19875C25.6009 1.66926 22.3712 1.64363 19.7395 3.13039L11.4173 7.84701C8.78559 9.34232 7.14507 12.1279 7.12798 15.1526L7.05109 24.7226C7.02545 27.7474 8.62325 30.5586 11.2293 32.088L19.4832 36.9414C22.0892 38.4709 25.319 38.4965 27.9506 37.0097L36.2729 32.2846C38.9045 30.7893 40.5365 28.0123 40.5622 24.9875L40.639 15.4175C40.6647 12.3927 39.0669 9.58156 36.4608 8.05208V8.04354Z" fill="#CACBE9"/>
<path d="M24.9321 29.3047L34.1696 25.8464V23.6641L24.9321 27.1224V29.3047Z" fill="#F5F5F5"/>
<path d="M25.0059 22.0369L23.5357 21.4544L24.9412 19.1519L34.1047 15.6935V14.2787L23.9518 10.8203L13.5122 14.2787L17.5993 26.7621L19.7815 27.6128L22.4446 23.2298L24.5806 24.0805L24.9319 24.2192L34.1694 20.7608V18.5785L25.0059 22.0369ZM19.1527 24.9312L16.0458 15.6195L23.9425 13.0118L30.0731 15.0554L23.0179 17.6631L21.4367 20.6221L18.7829 19.568L19.6336 22.1109L20.4658 22.4438L19.1342 24.9312H19.1527Z" fill="#F5F5F5"/>
</g>
<defs>
<filter id="filter0_d_3145_18054" x="0" y="0" width="48" height="48" filterUnits="userSpaceOnUse" color-interpolation-filters="sRGB">
<feFlood flood-opacity="0" result="BackgroundImageFix"/>
<feColorMatrix in="SourceAlpha" type="matrix" values="0 0 0 0 0 0 0 0 0 0 0 0 0 0 0 0 0 0 127 0" result="hardAlpha"/>
<feOffset dy="4"/>
<feGaussianBlur stdDeviation="2"/>
<feComposite in2="hardAlpha" operator="out"/>
<feColorMatrix type="matrix" values="0 0 0 0 0 0 0 0 0 0 0 0 0 0 0 0 0 0 0.25 0"/>
<feBlend mode="normal" in2="BackgroundImageFix" result="effect1_dropShadow_3145_18054"/>
<feBlend mode="normal" in="SourceGraphic" in2="effect1_dropShadow_3145_18054" result="shape"/>
</filter>
</defs>
</svg>
