<svg width="80" height="80" viewBox="0 0 80 80" fill="none" xmlns="http://www.w3.org/2000/svg">
<circle cx="40" cy="40" r="40" fill="#B7B8CF"/>
<path d="M64.9217 16.089L48.4139 6.39945C43.2019 3.34048 36.7423 3.28921 31.479 6.26273L14.8345 15.696C9.57119 18.6866 6.29015 24.2577 6.25597 30.3072L6.10217 49.4472C6.0509 55.4967 9.2465 61.1191 14.4586 64.178L30.9663 73.8847C36.1784 76.9437 42.6379 76.9949 47.9013 74.0214L64.5457 64.5711C69.8091 61.5805 73.073 56.0265 73.1243 49.9769L73.2781 30.837C73.3294 24.7874 70.1338 19.1651 64.9217 16.1061V16.089Z" fill="#CACBE9"/>
<path d="M41.8652 58.6095L60.3402 51.6927V47.3281L41.8652 54.2449V58.6095Z" fill="#F5F5F5"/>
<path d="M42.0128 44.0728L39.0723 42.9077L41.8834 38.3027L60.2104 31.386V28.5564L39.9046 21.6396L19.0254 28.5564L27.1995 53.5233L31.564 55.2247L36.8901 46.4586L41.1621 48.16L41.8649 48.4374L60.3399 41.5207V37.1561L42.0128 44.0728ZM30.3064 49.8615L24.0926 31.238L39.8861 26.0227L52.1473 30.1099L38.0367 35.3252L34.8743 41.2433L29.5667 39.135L31.2681 44.2208L32.9325 44.8866L30.2694 49.8615H30.3064Z" fill="#F5F5F5"/>
</svg>
