<svg width="24" height="24" viewBox="0 0 24 24" fill="none" xmlns="http://www.w3.org/2000/svg">
<path d="M18.9912 11.974C18.9912 11.3144 18.6363 10.7764 18.0685 10.3251C18.6363 9.87383 18.9912 9.31842 18.9912 8.67624C18.9912 4.44125 4.99121 4.44125 4.99121 8.67624C4.99121 9.31842 5.34609 9.87383 5.9139 10.3251C5.34609 10.7764 4.99121 11.3144 4.99121 11.974C4.99121 12.6335 5.34609 13.1716 5.9139 13.6228C5.34609 14.0741 4.99121 14.6122 4.99121 15.2717C4.99121 17.3892 8.52226 18.5 12.0001 18.5C15.4779 18.5 19.009 17.3892 19.009 15.2717C19.009 14.6122 18.6541 14.0741 18.0863 13.6228C18.6541 13.1716 19.009 12.6162 19.009 11.974H18.9912ZM6.76561 8.67624C6.76561 8.24232 8.59324 7.18358 12.0001 7.18358C15.4069 7.18358 17.2346 8.24232 17.2346 8.67624C17.2346 8.8498 16.9152 9.14486 16.2941 9.40521C15.4247 9.80441 13.9874 10.1689 12.0001 10.1689C10.0128 10.1689 8.55775 9.80441 7.70604 9.40521C7.10274 9.1275 6.76561 8.8498 6.76561 8.67624ZM17.2168 15.2717C17.2168 15.7056 15.3892 16.7644 11.9823 16.7644C8.5755 16.7644 6.74786 15.7056 6.74786 15.2717C6.74786 15.0981 7.06726 14.8204 7.65281 14.5427C8.89489 14.9766 10.4386 15.2023 11.9823 15.2023C13.5261 15.2023 15.0698 14.9766 16.3119 14.5427C16.8974 14.8204 17.2168 15.0981 17.2168 15.2717ZM11.9823 13.4666C9.97727 13.4666 8.54001 13.1021 7.6883 12.7029C7.085 12.4252 6.74786 12.1475 6.74786 11.974C6.74786 11.8004 7.06726 11.5227 7.65281 11.245C8.89489 11.6789 10.4386 11.9045 11.9823 11.9045C13.5261 11.9045 15.0698 11.6789 16.3119 11.245C16.8974 11.5227 17.2168 11.8004 17.2168 11.974C17.2168 12.1475 16.8974 12.4426 16.2764 12.7029C15.4069 13.0848 13.9697 13.4666 11.9823 13.4666Z" fill="#B7B8CD"/>
</svg>
